<svg width="50" height="34" viewBox="0 0 50 34" fill="none" xmlns="http://www.w3.org/2000/svg">
<path d="M50 16.9795C50 18.5308 50 22.8134 46.39 26.9049C28.0887 13.7925 45.8807 25.9977 36.4836 32.4825C34.6357 34.1031 31.041 34.3501 27.673 33.5812C24.3049 32.8123 21.9662 31.6519 19.6019 29.0776C16.7019 25.9216 11.4806 18.1706 1.74742e-07 19.3464C9.18445 5.23644 25.6637 2.16735 39.4403 16.2773C37.4214 7.23041 29.4135 7.32523 23.7421 1.44608C25.517 0.811135 30.087 1.44495e-06 32.0755 1.46866e-06C36.6427 1.52312e-06 41.093 1.21552 44.3225 4.52319C47.5521 7.83085 50 12.3018 50 16.9795Z" fill="url(#paint0_linear_143_24)"/>
<defs>
<linearGradient id="paint0_linear_143_24" x1="-5.70457" y1="-7.90746" x2="64.9915" y2="34.2026" gradientUnits="userSpaceOnUse">
<stop offset="0.193611" stop-color="#65E08B"/>
<stop offset="0.392229" stop-color="#84D920"/>
<stop offset="0.52726" stop-color="#8DD703"/>
<stop offset="0.889468" stop-color="#04694A"/>
</linearGradient>
</defs>
</svg>
